<svg class="_logo__icon_1mh35_109" role="img" viewBox="0 0 153 32">
    <g>
        <path d="m9.3057 17.982c0-2.1611 1.7359-3.913 3.8774-3.913s3.8774 1.7519 3.8774 3.913c0 2.1612-1.7359 3.9131-3.8774 3.9131s-3.8774-1.7519-3.8774-3.9131zm-4.6527 0c0 4.7547 3.819 8.6088 8.53 8.6088 4.7113 0 8.5303-3.8541 8.5303-8.6088 0-4.7543-3.819-8.6084-8.5303-8.6084-4.711 0-8.53 3.8542-8.53 8.6084z" clip-rule="evenodd" fill="#FE2020" fill-rule="evenodd"/>
        <path d="m13.183 4.6781v4.6958c-4.711 0-8.53 3.8545-8.53 8.6088s3.819 8.6088 8.53 8.6088c4.7113 0 8.5303-3.8545 8.5303-8.6088h4.653c0 7.3475-5.9025 13.304-13.183 13.304-7.2808 0-13.183-5.9567-13.183-13.304 0-7.3478 5.9022-13.305 13.183-13.305z" clip-rule="evenodd" fill="#2EE5AC" fill-rule="evenodd"/>
        <path d="m13.183 4.6781v-3.8934c0-0.44548 0.3688-0.80358 0.8096-0.78396 9.2066 0.41513 16.597 7.8739 17.008 17.165 0.0201 0.4455-0.3348 0.8174-0.7762 0.8174h-3.8582c0-7.3478-5.9022-13.305-13.183-13.305z" clip-rule="evenodd" fill="#2EE5AC" fill-rule="evenodd"/>
        <path d="m13.183 9.374v-4.6958c7.2811 0 13.183 5.9564 13.183 13.304h-4.653c0-4.7543-3.819-8.6085-8.5303-8.6085z" clip-rule="evenodd" fill="#6363F6" fill-rule="evenodd"/>
        <path d="m13.183 21.896c2.1415 0 3.8777-1.7519 3.8777-3.9131 0-2.1611-1.7362-3.9127-3.8777-3.9127s-3.8774 1.7516-3.8774 3.9127c0 2.1612 1.7359 3.9131 3.8774 3.9131z" clip-rule="evenodd" fill="#0A0A0A" fill-rule="evenodd"/>
    </g>
</svg>